<?xml version="1.0" encoding="iso-8859-1"?>
<!DOCTYPE svg PUBLIC "-//W3C//DTD SVG 1.1//EN" "http://www.w3.org/Graphics/SVG/1.1/DTD/svg11.dtd">
<svg fill="#20B2AA" height="800px" width="800px" version="1.1" id="Capa_1" xmlns="http://www.w3.org/2000/svg" xmlns:xlink="http://www.w3.org/1999/xlink" 
	 viewBox="0 0 374 374" xml:space="preserve">
<g>
	<path d="M108.75,150h159.602c4.782,0,6.634-3.046,7.208-4.26s1.747-4.548-1.286-8.246L197.5,43.565V30h24.733
		c3.897,0,7.267-3.65,7.267-7.548V6.593c0-3.898-3.369-6.593-7.267-6.593H187c-3.898,0-7.5,2.695-7.5,6.593v36.973l-76.723,93.816
		c-3.033,3.698-1.917,7.144-1.343,8.358C102.008,146.953,103.968,150,108.75,150z"/>
	<path d="M324.246,173h-33.123c-5.306,0-9.623,4.229-9.623,9.427V190h-8v-7.573c0-5.375-3.913-9.427-9.103-9.427h-33.123
		c-5.39,0-9.774,4.229-9.774,9.427V190h-7.918c-0.028,0-0.056,0-0.082-0.002v-7.571c0-5.375-3.849-9.427-8.951-9.427h-33.124
		c-5.38,0-9.925,4.317-9.925,9.427V190h-7.766c-0.081,0-0.159-0.005-0.234-0.014v-7.559c0-5.462-3.701-9.427-8.8-9.427h-33.124
		c-5.462,0-10.076,4.317-10.076,9.427L101.498,190h-7.612c-0.134,0-0.265-0.014-0.385-0.035v-7.538c0-5.551-3.556-9.427-8.648-9.427
		H51.727c-4.939,0-10.227,3.788-10.227,9.427v29.36c0,5.69,5.309,9.213,10.227,9.213H54.5v140.503
		c0,9.168,6.055,12.497,10.125,12.497h85.095c3.048,0,4.601-1.561,5.255-2.491c1.649-2.345,0.873-4.845,0.525-5.83v-46.805
		c0-17.79,14.58-32.264,32.5-32.264c17.921,0,32.5,14.474,32.5,32.264v47.396c0,3.733,3.22,7.729,8.013,7.729h82.836
		c3.538,0,9.151-2.808,9.151-10.342V221.059c0.021-0.021,0.043-0.042,0.065-0.059h3.681c3.808,0,8.254-2.413,8.254-9.213v-29.36
		C332.5,175.469,328.054,173,324.246,173z"/>
</g>
</svg>