<?xml version="1.0" encoding="iso-8859-1"?>
<!-- Uploaded to: SVG Repo, www.svgrepo.com, Generator: SVG Repo Mixer Tools -->
<svg height="800px" width="800px" version="1.1" id="Layer_1" xmlns="http://www.w3.org/2000/svg" xmlns:xlink="http://www.w3.org/1999/xlink" 
	 viewBox="0 0 512 512" xml:space="preserve">
<path style="fill:#CFF09E;" d="M80.771,404.681V198.463c0-8.636,7.001-15.638,15.638-15.638h239.659
	c8.636,0,15.638,7.001,15.638,15.638v206.218c0,8.636-7.001,15.638-15.638,15.638H96.408
	C87.772,420.32,80.771,413.319,80.771,404.681z"/>
<g>
	<path style="fill:#507C5C;" d="M336.068,434.401H96.408c-16.387,0-29.718-13.332-29.718-29.719V198.463
		c0-16.387,13.332-29.718,29.718-29.718h239.661c16.387,0,29.718,13.332,29.718,29.718v206.218
		C365.786,421.069,352.455,434.401,336.068,434.401z M96.408,196.906c-0.858,0-1.556,0.698-1.556,1.556V404.68
		c0,0.859,0.698,1.557,1.556,1.557h239.661c0.858,0,1.556-0.698,1.556-1.557V198.463c0-0.858-0.698-1.556-1.556-1.556H96.408
		V196.906z"/>
	<path style="fill:#507C5C;" d="M419.111,434.401c-23.102,0-41.896-18.795-41.896-41.896s18.795-41.898,41.896-41.898
		c7.777,0,14.081,6.304,14.081,14.081c0,7.777-6.304,14.081-14.081,14.081c-7.573,0-13.734,6.162-13.734,13.736
		c0,7.573,6.162,13.734,13.734,13.734c7.573,0,13.734-6.162,13.734-13.734c0-7.777,6.304-14.081,14.081-14.081
		s14.081,6.304,14.081,14.081C461.008,415.605,442.212,434.401,419.111,434.401z"/>
	<path style="fill:#507C5C;" d="M435.659,323.419h-33.097c-7.777,0-14.081-6.304-14.081-14.081s6.304-14.081,14.081-14.081h33.097
		c7.777,0,14.081,6.304,14.081,14.081S443.436,323.419,435.659,323.419z"/>
	<path style="fill:#507C5C;" d="M435.659,273.417h-33.097c-7.777,0-14.081-6.304-14.081-14.081s6.304-14.081,14.081-14.081h33.097
		c7.777,0,14.081,6.304,14.081,14.081S443.436,273.417,435.659,273.417z"/>
	<path style="fill:#507C5C;" d="M435.659,223.414h-33.097c-7.777,0-14.081-6.304-14.081-14.081s6.304-14.081,14.081-14.081h33.097
		c7.777,0,14.081,6.304,14.081,14.081S443.436,223.414,435.659,223.414z"/>
	<path style="fill:#507C5C;" d="M350.356,459.221H41.868V143.922h116.267c7.777,0,14.081-6.304,14.081-14.081
		s-6.304-14.081-14.081-14.081H27.787c-7.777,0-14.081,6.304-14.081,14.081v343.46c0,7.777,6.304,14.081,14.081,14.081h30.064
		v10.537c0,7.777,6.304,14.081,14.081,14.081s14.081-6.304,14.081-14.081v-10.537h264.343c7.777,0,14.081-6.304,14.081-14.081
		C364.437,465.525,358.133,459.221,350.356,459.221z"/>
	<path style="fill:#507C5C;" d="M484.213,115.76H286.408l91.5-91.735c5.492-5.506,5.48-14.422-0.025-19.913
		c-5.506-5.493-14.422-5.48-19.913,0.025L252.48,109.899l-78.036-78.299c-5.489-5.508-14.406-5.523-19.913-0.034
		c-5.508,5.489-5.523,14.405-0.034,19.913l88.005,88.303c0.003,0.003,0.006,0.004,0.008,0.007c0.006,0.006,0.011,0.011,0.017,0.017
		c0.001,0.001,0.003,0.004,0.006,0.006c0.046,0.045,0.096,0.083,0.142,0.128c0.28,0.272,0.566,0.538,0.869,0.786
		c0.015,0.013,0.03,0.025,0.044,0.038c0.156,0.128,0.322,0.237,0.483,0.356c0.193,0.144,0.38,0.293,0.579,0.427
		c0.027,0.018,0.052,0.038,0.077,0.055c0.179,0.118,0.368,0.217,0.551,0.327c0.184,0.11,0.365,0.227,0.553,0.328
		c0.032,0.017,0.062,0.038,0.094,0.055c0.183,0.097,0.375,0.173,0.562,0.262c0.197,0.093,0.391,0.191,0.594,0.276
		c0.032,0.013,0.062,0.03,0.094,0.042c0.183,0.075,0.37,0.13,0.556,0.196c0.217,0.077,0.431,0.161,0.652,0.228
		c0.027,0.008,0.053,0.02,0.082,0.028c0.19,0.056,0.383,0.093,0.575,0.141c0.227,0.056,0.451,0.121,0.682,0.166
		c0.021,0.004,0.042,0.011,0.065,0.015c0.23,0.045,0.462,0.068,0.693,0.1c0.203,0.028,0.401,0.068,0.605,0.087
		c0.014,0.001,0.027,0.004,0.041,0.006c0.449,0.044,0.9,0.065,1.35,0.065h217.656v315.299h-30.064l0,0l0,0
		c-7.777,0-14.081,6.304-14.081,14.081v24.618c0,7.777,6.304,14.081,14.081,14.081c7.777,0,14.081-6.304,14.081-14.081v-10.537
		h30.064c7.777,0,14.081-6.304,14.081-14.081v-343.46C498.294,122.064,491.99,115.76,484.213,115.76z"/>
</g>
</svg>